/vscmnt/brussel_pixiu_data/_data_brussel/112/vsc11236/PredSimResults/SUBJ04opt3D/weighted-expIG/worker_04.mot
version=1
nRows=5
nColumns=50
inDegrees=yes
endheader
                time	         pelvis_tilt	         pelvis_list	     pelvis_rotation	           pelvis_tx	           pelvis_ty	           pelvis_tz	       hip_flexion_r	     hip_adduction_r	      hip_rotation_r	        knee_angle_r	       ankle_angle_r	         mtp_angle_r	       hip_flexion_l	     hip_adduction_l	      hip_rotation_l	        knee_angle_l	       ankle_angle_l	         mtp_angle_l	    lumbar_extension	      lumbar_bending	     lumbar_rotation	 ercspn_r/activation	 intobl_r/activation	 extobl_r/activation	    abd_r/activation	    add_r/activation	hamstrings_r/activation	bifemsh_r/activation	glut_max_r/activation	iliopsoas_r/activation	rect_fem_r/activation	  vasti_r/activation	gastroc_r/activation	 soleus_r/activation	tib_ant_r/activation	 ercspn_l/activation	 intobl_l/activation	 extobl_l/activation	    abd_l/activation	    add_l/activation	hamstrings_l/activation	bifemsh_l/activation	glut_max_l/activation	iliopsoas_l/activation	rect_fem_l/activation	  vasti_l/activation	gastroc_l/activation	 soleus_l/activation	tib_ant_l/activation	
          0.66298314	         -1.65495111	         -0.32763892	         -7.32712597	          0.59668483	          0.88116850	          0.00887235	        -12.86719905	         -0.09367594	         -7.22255817	         -7.46688782	         13.92332738	         19.88478652	         28.54612834	         -2.30914373	         -7.99928039	        -11.28967159	          4.10750314	          0.23755184	        -13.61984678	          3.56315014	          8.43201489	          0.02971452	          0.00999999	          0.00999999	          0.06617311	          0.00999999	          0.02599752	          0.32238201	          0.01570850	          0.02222562	          0.00999999	          0.00999999	          0.28891023	          0.27606949	          0.00999999	          0.04777658	          0.22392637	          0.01800488	          0.00999999	          0.36394931	          0.06722781	          0.03055690	          0.01406054	          0.15981976	          0.03313459	          0.04416025	          0.00999999	          0.01444235	          0.32874565	
          0.67624280	         -1.74229612	         -0.27632604	         -7.07766425	          0.61243409	          0.87882141	          0.00845662	        -13.49165229	         -0.23889709	         -7.90588092	         -8.17628186	         13.74359357	         21.37601095	         28.52586765	         -2.11366060	         -7.94354560	        -12.87587060	          3.92685511	          0.22404032	        -13.07996065	          2.84879792	          8.50950012	          0.03157995	          0.00999999	          0.00999999	          0.05419608	          0.00999999	          0.03684785	          0.27114461	          0.01286534	          0.01820288	          0.00999999	          0.00999999	          0.27128330	          0.27649994	          0.00999999	          0.03912923	          0.22137500	          0.01474608	          0.00999999	          0.29807615	          0.07474191	          0.02502624	          0.03876202	          0.13089312	          0.02713738	          0.03616745	          0.01220993	          0.01490826	          0.35190618	
          0.68950246	         -1.81447298	         -0.15284601	         -6.78622764	          0.62849927	          0.87670668	          0.00795282	        -14.01588574	         -0.47360728	         -8.63052836	         -9.12664339	         13.47350032	         22.93899473	         28.40208954	         -1.86739683	         -7.94424227	        -14.27233152	          3.52018051	          0.21576368	        -12.51433332	          2.03572113	          8.55026138	          0.02873237	          0.00999999	          0.00999999	          0.04438684	          0.00999999	          0.03017856	          0.22206868	          0.01053677	          0.01490825	          0.00999999	          0.00999999	          0.22218227	          0.26707426	          0.00999999	          0.03204702	          0.18130714	          0.01207711	          0.01858069	          0.24412574	          0.08329241	          0.02049661	          0.03174627	          0.10720206	          0.02222564	          0.10196344	          0.00999999	          0.01220993	          0.38137123	
          0.70276213	         -1.87213960	          0.02742051	         -6.45303815	          0.64474222	          0.87499964	          0.00733418	        -14.39395862	         -0.79092709	         -9.39545929	        -10.37999076	         13.06371891	         24.56648158	         28.18513564	         -1.57646655	         -8.08841510	        -15.51118708	          3.08495324	          0.19410589	        -11.94581837	          1.14812911	          8.55001581	          0.03964593	          0.00999999	          0.00999999	          0.03635303	          0.00999999	          0.05297410	          0.18187527	          0.01017368	          0.01220992	          0.00999999	          0.00999999	          0.18196830	          0.25222887	          0.00999999	          0.02624666	          0.14849138	          0.00999999	          0.03430788	          0.21005106	          0.08460832	          0.01678682	          0.02600034	          0.08779898	          0.01820290	          0.18235612	          0.00999999	          0.00999999	          0.40701015	
          0.71602179	         -1.91584500	          0.25835992	         -6.08964517	          0.66105110	          0.87388220	          0.00659528	        -14.57999873	         -1.19831348	        -10.19184826	        -11.99333326	         12.44742563	         26.26652066	         27.84338541	         -1.24418767	         -8.36860641	        -16.58872130	          2.85399155	          0.16963226	        -11.39020292	          0.20065096	          8.51077464	          0.06983939	          0.00999999	          0.00999999	          0.02977330	          0.00999999	          0.05565914	          0.14895668	          0.01421032	          0.00999999	          0.00999999	          0.00999999	          0.14903287	          0.21186634	          0.00999999	          0.02594959	          0.12161512	          0.00999999	          0.07079929	          0.18817883	          0.08308977	          0.01374848	          0.02129440	          0.07190777	          0.01490826	          0.23734953	          0.00999999	          0.00999999	          0.41344702	
